# xmcd
#
# Track frame offsets:
#	150
#	26253
#	41849
#	58767
#	77092
#	93882
#	109553
#	136189
#	154478
#	174013
#	200187
#	222929
#
# Disc length: 3226 seconds
# Revision: 0
# Processed by: cddbd v1.5.2PL0 Copyright (c) Steve Scherf et al.
# Submitted via: dBpowerAMP V12.0
#
DISCID=9c0c980c
DTITLE=The KingmiXers - Flyboy
DYEAR=2014
DGENRE=Blues
TTITLE0=Walking Blues
TTITLE1=Steady
TTITLE2=The Quarter
TTITLE3=Let Me Explain
TTITLE4=Guilty
TTITLE5=Secrets
TTITLE6=Gizbone
TTITLE7=Lacy's Place
TTITLE8=Passaic Walk
TTITLE9=The Real World
TTITLE10=You'll Never Get The Blues
TTITLE11=Flyboy
EXTD=
EXTT0=
EXTT1=
EXTT2=
EXTT3=
EXTT4=
EXTT5=
EXTT6=
EXTT7=
EXTT8=
EXTT9=
EXTT10=
EXTT11=
PLAYORDER=
